# xmcd
#
# Track frame offsets: 
#        150
#        11886
#        29477
#        50383
#        67786
#        80648
#        103477
#        123931
#        141276
#        153712
#        177182
#        193743
#        209055
#        224138
#
# Disc length: 3204 seconds
#
# Revision: 0
# Processed by: cddbd v1.5.2PL0 Copyright (c) Steve Scherf et al.
# Submitted via: ExactAudioCopy v0.95b4
#
DISCID=dd0c820e
DTITLE=Bart Crow - Dandelion
DYEAR=2012
DGENRE=Country
TTITLE0=Little Bit of Luck
TTITLE1=Didn't Mean to Break Your Heart
TTITLE2=First of Fall
TTITLE3=Dandelion
TTITLE4=Swing to the Radio
TTITLE5=Cold Heart
TTITLE6=If I Go, I'm Goin' (feat. Macy Maloy)
TTITLE7=Falling For You
TTITLE8=Loving You's a Crime
TTITLE9=Better Day
TTITLE10=Busted
TTITLE11=I Miss You
TTITLE12=Wasted Time
TTITLE13=Thank You
EXTD=
EXTT0=
EXTT1=
EXTT2=
EXTT3=
EXTT4=
EXTT5=
EXTT6=
EXTT7=
EXTT8=
EXTT9=
EXTT10=
EXTT11=
EXTT12=
EXTT13=
PLAYORDER=
